<?xml version="1.0" encoding="iso-8859-1"?>
<!-- Generator: Adobe Illustrator 19.0.0, SVG Export Plug-In . SVG Version: 6.00 Build 0)  -->
<svg version="1.1" id="Capa_1" xmlns="http://www.w3.org/2000/svg" xmlns:xlink="http://www.w3.org/1999/xlink" x="0px" y="0px"
	 viewBox="0 0 370.08 370.08" style="enable-background:new 0 0 370.08 370.08;" xml:space="preserve">
<g>
	<g>
		<path d="M286.849,55.376C286.849,55.376,286.849,55.376,286.849,55.376c-2.48,0-4.96,0.28-7.4,0.52
			C250.838,3.761,185.381-15.31,133.245,13.3c-17.962,9.857-32.739,24.634-42.596,42.596c-2.48-0.2-4.92-0.52-7.44-0.52
			c-45.398,0.012-82.19,36.824-82.178,82.222c0.012,45.381,36.797,82.166,82.178,82.178h203.64c45.398,0,82.2-36.802,82.2-82.2
			S332.247,55.376,286.849,55.376z M287.049,208.056l-0.2-0.12c-30.868,0.116-58.169-20.002-67.2-49.52
			c-0.972-3.126-4.294-4.872-7.42-3.9s-4.872,4.294-3.9,7.42c5.928,19.253,18.745,35.644,36,46.04H83.249
			c-38.848-0.927-69.589-33.17-68.662-72.018c0.895-37.544,31.118-67.767,68.662-68.662c3.332-0.003,6.66,0.224,9.96,0.68
			c19.415,2.775,36.803,13.498,48,29.6c1.867,2.695,5.565,3.367,8.26,1.5c2.695-1.867,3.367-5.565,1.5-8.26
			c-11.38-16.352-28.284-28.043-47.6-32.92c27.857-45.112,87.009-59.1,132.121-31.243c28.139,17.376,45.353,48.012,45.559,81.083
			c0,3.314,2.686,6,6,6s6-2.686,6-6c-0.033-13.844-2.749-27.55-8-40.36c0.68,0,1.32,0,2,0c38.848,0.927,69.589,33.17,68.662,72.018
			C354.816,176.938,324.593,207.161,287.049,208.056z"/>
	</g>
</g>
<g>
	<g>
		<path d="M150.621,239.749c-2.668-1.823-6.305-1.17-8.172,1.468v0l-40,57.28c-1.883,2.591-1.31,6.218,1.281,8.102
			c0.065,0.047,0.132,0.094,0.199,0.138c2.684,1.867,6.373,1.204,8.24-1.48l40-57.28
			C154.013,245.277,153.321,241.593,150.621,239.749z"/>
	</g>
</g>
<g>
	<g>
		<path d="M88.917,328.364c-2.669-1.889-6.363-1.256-8.252,1.412c-0.019,0.026-0.037,0.053-0.056,0.08l-21.48,30.8
			c-1.844,2.689-1.184,6.36,1.48,8.24c2.653,1.872,6.322,1.239,8.194-1.414c0.015-0.022,0.031-0.044,0.046-0.066l21.48-30.8
			C92.218,333.948,91.585,330.253,88.917,328.364z"/>
	</g>
</g>
<g>
	<g>
		<path d="M214.569,239.736c-2.684-1.867-6.373-1.204-8.24,1.48l-27.28,39.04c-1.878,2.622-1.274,6.27,1.348,8.148
			c0.044,0.031,0.088,0.062,0.132,0.092c2.711,1.736,6.302,1.091,8.24-1.48l27.24-39.08
			C217.856,245.27,217.214,241.614,214.569,239.736z"/>
	</g>
</g>
<g>
	<g>
		<path d="M164.969,312.296c-2.662-1.911-6.369-1.302-8.28,1.36l-33.64,46.92c-1.956,2.62-1.418,6.329,1.201,8.286
			c0.052,0.039,0.105,0.077,0.159,0.115c2.666,1.895,6.361,1.289,8.28-1.36l33.64-47.04
			C168.24,317.914,167.631,314.207,164.969,312.296z"/>
	</g>
</g>
<g>
	<g>
		<path d="M278.449,239.736c-2.695-1.856-6.384-1.175-8.24,1.52l-52,75.36c-1.901,2.66-1.286,6.357,1.374,8.259
			c0.048,0.034,0.097,0.068,0.146,0.101c2.491,1.87,6.027,1.366,7.896-1.126c0.124-0.165,0.239-0.337,0.344-0.514l52-75.36
			C281.825,245.281,281.144,241.592,278.449,239.736z"/>
	</g>
</g>
<g>
	<g>
		<path d="M206.941,342.109c-2.668-1.823-6.305-1.17-8.172,1.468l-12,17.08c-1.867,2.684-1.204,6.373,1.48,8.24
			c2.56,1.889,6.166,1.346,8.055-1.214c0.064-0.087,0.126-0.176,0.185-0.266l12-17.08
			C210.334,347.637,209.641,343.953,206.941,342.109z"/>
	</g>
</g>
<g>
</g>
<g>
</g>
<g>
</g>
<g>
</g>
<g>
</g>
<g>
</g>
<g>
</g>
<g>
</g>
<g>
</g>
<g>
</g>
<g>
</g>
<g>
</g>
<g>
</g>
<g>
</g>
<g>
</g>
</svg>
