<?xml version="1.0" encoding="iso-8859-1"?>
<!-- Generator: Adobe Illustrator 19.0.0, SVG Export Plug-In . SVG Version: 6.00 Build 0)  -->
<svg xmlns="http://www.w3.org/2000/svg" xmlns:xlink="http://www.w3.org/1999/xlink" version="1.1" id="Capa_1" x="0px" y="0px" viewBox="0 0 208.213 208.213" style="enable-background:new 0 0 208.213 208.213;" xml:space="preserve" width="512px" height="512px">
<g>
	<g>
		<path d="M110.933,130.131c-1.884,0-3.413,1.529-3.413,3.413v49.068c0,10.351-8.422,18.773-18.773,18.773    s-18.773-8.422-18.773-18.773v-1.707c0-1.882,1.531-3.413,3.413-3.413s3.413,1.531,3.413,3.413v1.707    c0,6.588,5.359,11.947,11.947,11.947c6.588,0,11.947-5.359,11.947-11.947v-49.691c0-1.884-1.529-3.413-3.413-3.413    s-3.413,1.529-3.413,3.413v49.691c0,2.823-2.297,5.12-5.12,5.12c-2.823,0-5.12-2.297-5.12-5.12v-1.707    c0-5.647-4.593-10.24-10.24-10.24c-5.647,0-10.24,4.593-10.24,10.24v1.707c0,14.116,11.484,25.6,25.6,25.6s25.6-11.484,25.6-25.6    v-49.068C114.346,131.66,112.817,130.131,110.933,130.131z" fill="#FFFFFF"/>
	</g>
</g>
<g>
	<g>
		<path d="M104.106,51.2c-56.463,0-102.4,45.17-102.4,100.693c0,1.884,1.529,3.413,3.413,3.413c1.884,0,3.413-1.529,3.413-3.413    c0-12.233,10.155-22.187,22.632-22.187c9.303,0,17.795,5.716,21.135,14.223c0.514,1.307,1.773,2.166,3.178,2.166    c1.405,0,2.664-0.858,3.178-2.166c3.34-8.508,11.832-14.223,21.135-14.223s17.795,5.716,21.135,14.223    c0.514,1.307,1.773,2.166,3.178,2.166s2.664-0.858,3.178-2.166c3.34-8.508,11.832-14.223,21.135-14.223    s17.795,5.716,21.135,14.223c0.514,1.307,1.773,2.166,3.178,2.166s2.664-0.858,3.178-2.166    c3.34-8.508,11.832-14.223,21.135-14.223c12.481,0,22.636,9.953,22.636,22.187c0,1.884,1.529,3.413,3.413,3.413    s3.413-1.529,3.413-3.413C206.506,96.37,160.57,51.2,104.106,51.2z M177.046,122.88c-9.784,0-18.889,4.888-24.313,12.638    c-5.425-7.75-14.529-12.638-24.313-12.638c-9.784,0-18.889,4.888-24.311,12.638c-5.425-7.75-14.529-12.638-24.313-12.638    c-9.784,0-18.889,4.888-24.313,12.638c-5.425-7.75-14.529-12.638-24.313-12.638c-7.811,0-14.921,3.009-20.2,7.912    c9.774-41.631,47.824-72.765,93.138-72.765s83.364,31.135,93.14,72.765C191.969,125.888,184.857,122.88,177.046,122.88z" fill="#FFFFFF"/>
	</g>
</g>
<g>
	<g>
		<path d="M62.146,1c-1.331-1.333-3.495-1.333-4.826,0L43.667,14.653c-1.333,1.333-1.333,3.494,0,4.826c0.666,0.667,1.539,1,2.413,1    c0.874,0,1.748-0.333,2.413-1L62.146,5.826C63.479,4.493,63.479,2.333,62.146,1z" fill="#FFFFFF"/>
	</g>
</g>
<g>
	<g>
		<path d="M96.28,1c-1.331-1.333-3.495-1.333-4.826,0L77.8,14.653c-1.333,1.333-1.333,3.494,0,4.826c0.666,0.667,1.539,1,2.413,1    c0.874,0,1.748-0.333,2.413-1L96.28,5.826C97.613,4.493,97.613,2.333,96.28,1z" fill="#FFFFFF"/>
	</g>
</g>
<g>
	<g>
		<path d="M130.413,1c-1.331-1.333-3.495-1.333-4.826,0l-13.653,13.653c-1.333,1.333-1.333,3.494,0,4.826    c0.666,0.667,1.539,1,2.413,1c0.874,0,1.748-0.333,2.413-1l13.653-13.653C131.746,4.493,131.746,2.333,130.413,1z" fill="#FFFFFF"/>
	</g>
</g>
<g>
	<g>
		<path d="M164.546,1c-1.331-1.333-3.495-1.333-4.826,0l-13.653,13.653c-1.333,1.333-1.333,3.494,0,4.826    c0.666,0.667,1.539,1,2.413,1c0.874,0,1.748-0.333,2.413-1l13.653-13.653C165.879,4.493,165.879,2.333,164.546,1z" fill="#FFFFFF"/>
	</g>
</g>
<g>
	<g>
		<path d="M198.68,1c-1.331-1.333-3.495-1.333-4.826,0L180.2,14.653c-1.333,1.333-1.333,3.494,0,4.826c0.666,0.667,1.539,1,2.413,1    c0.874,0,1.748-0.333,2.413-1L198.68,5.826C200.013,4.493,200.013,2.333,198.68,1z" fill="#FFFFFF"/>
	</g>
</g>
<g>
	<g>
		<path d="M28.013,24.893c-1.331-1.333-3.495-1.333-4.826,0L9.533,38.546c-1.333,1.333-1.333,3.494,0,4.826    c0.666,0.667,1.539,1,2.413,1c0.874,0,1.748-0.333,2.413-1l13.653-13.653C29.346,28.387,29.346,26.226,28.013,24.893z" fill="#FFFFFF"/>
	</g>
</g>
<g>
	<g>
		<path d="M62.146,24.893c-1.331-1.333-3.495-1.333-4.826,0L43.667,38.546c-1.333,1.333-1.333,3.494,0,4.826    c0.666,0.667,1.539,1,2.413,1c0.874,0,1.748-0.333,2.413-1l13.653-13.653C63.479,28.387,63.479,26.226,62.146,24.893z" fill="#FFFFFF"/>
	</g>
</g>
<g>
	<g>
		<path d="M96.28,24.893c-1.331-1.333-3.495-1.333-4.826,0L77.8,38.546c-1.333,1.333-1.333,3.494,0,4.826    c0.666,0.667,1.539,1,2.413,1c0.874,0,1.748-0.333,2.413-1L96.28,29.719C97.613,28.387,97.613,26.226,96.28,24.893z" fill="#FFFFFF"/>
	</g>
</g>
<g>
	<g>
		<path d="M130.413,24.893c-1.331-1.333-3.495-1.333-4.826,0l-13.653,13.653c-1.333,1.333-1.333,3.494,0,4.826    c0.666,0.667,1.539,1,2.413,1c0.874,0,1.748-0.333,2.413-1l13.653-13.653C131.746,28.387,131.746,26.226,130.413,24.893z" fill="#FFFFFF"/>
	</g>
</g>
<g>
	<g>
		<path d="M164.546,24.893c-1.331-1.333-3.495-1.333-4.826,0l-13.653,13.653c-1.333,1.333-1.333,3.494,0,4.826    c0.666,0.667,1.539,1,2.413,1c0.874,0,1.748-0.333,2.413-1l13.653-13.653C165.879,28.387,165.879,26.226,164.546,24.893z" fill="#FFFFFF"/>
	</g>
</g>
<g>
</g>
<g>
</g>
<g>
</g>
<g>
</g>
<g>
</g>
<g>
</g>
<g>
</g>
<g>
</g>
<g>
</g>
<g>
</g>
<g>
</g>
<g>
</g>
<g>
</g>
<g>
</g>
<g>
</g>
</svg>
