<?xml version="1.0" encoding="iso-8859-1"?>
<!-- Generator: Adobe Illustrator 19.0.0, SVG Export Plug-In . SVG Version: 6.00 Build 0)  -->
<svg xmlns="http://www.w3.org/2000/svg" xmlns:xlink="http://www.w3.org/1999/xlink" version="1.1" id="Capa_1" x="0px" y="0px" viewBox="0 0 480 480" style="enable-background:new 0 0 480 480;" xml:space="preserve" width="512px" height="512px">
<g>
	<g>
		<path d="M240,128c-13.255,0-24,10.745-24,24s10.745,24,24,24s24-10.745,24-24S253.255,128,240,128z M240,160c-4.418,0-8-3.582-8-8    s3.582-8,8-8s8,3.582,8,8S244.418,160,240,160z" fill="#FFFFFF"/>
	</g>
</g>
<g>
	<g>
		<path d="M357.656,178.344l-32-32c-3.178-3.07-8.242-2.982-11.312,0.196c-2.994,3.1-2.994,8.015,0,11.116l32,32    c3.178,3.07,8.242,2.982,11.312-0.196C360.65,186.359,360.65,181.444,357.656,178.344z" fill="#FFFFFF"/>
	</g>
</g>
<g>
	<g>
		<path d="M389.656,162.344L315.312,88l74.344-74.344c3.124-3.125,3.123-8.19-0.002-11.314C388.154,0.843,386.121,0,384,0H256    c-2.122,0-4.156,0.844-5.656,2.344L176,76.688L101.656,2.344c-3.125-3.124-8.19-3.123-11.314,0.002C88.843,3.846,88,5.879,88,8    v128c0,2.122,0.844,4.156,2.344,5.656L164.688,216l-74.344,74.344c-3.124,3.125-3.123,8.19,0.002,11.314    C91.846,303.157,93.879,304,96,304h120v168c0,4.418,3.582,8,8,8h32c4.418,0,8-3.582,8-8V267.312l40-40l74.344,74.344    c3.125,3.124,8.19,3.123,11.314-0.002c1.499-1.5,2.342-3.534,2.342-5.654V168C392,165.878,391.156,163.844,389.656,162.344z     M259.312,16h105.376l-91.2,91.2c-19.809-14.955-47.135-14.955-66.944,0l-19.2-19.2L259.312,16z M280,152    c0,22.091-17.909,40-40,40c-22.08-0.026-39.974-17.92-40-40c0-22.091,17.909-40,40-40C262.091,112,280,129.909,280,152z     M104,132.688V27.312l91.2,91.2c-14.95,19.811-14.95,47.133,0,66.944l-19.2,19.2L104,132.688z M248,464h-16V299.312l16-16V464z     M220.688,288H115.312l91.2-91.2c19.809,14.955,47.135,14.955,66.944,0l19.2,19.2L220.688,288z M376,276.688l-91.2-91.2    c14.955-19.809,14.955-47.135,0-66.944l19.2-19.2l72,72V276.688z" fill="#FFFFFF"/>
	</g>
</g>
<g>
</g>
<g>
</g>
<g>
</g>
<g>
</g>
<g>
</g>
<g>
</g>
<g>
</g>
<g>
</g>
<g>
</g>
<g>
</g>
<g>
</g>
<g>
</g>
<g>
</g>
<g>
</g>
<g>
</g>
</svg>
